<svg width="24" height="24" viewBox="0 0 24 24" fill="none" xmlns="http://www.w3.org/2000/svg">
<path d="M18.71 19.5C17.88 20.74 17 21.95 15.66 21.97C14.32 22 13.89 21.18 12.37 21.18C10.84 21.18 10.37 21.95 9.09997 22C7.78997 22.05 6.79997 20.68 5.95997 19.47C4.24997 17 2.93997 12.45 4.69997 9.39C5.56997 7.87 7.12997 6.91 8.81997 6.88C10.1 6.86 11.32 7.75 12.11 7.75C12.89 7.75 14.37 6.68 15.91 6.84C16.56 6.87 18.38 7.1 19.55 8.82L19.46 8.88C19.24 9.02 17.27 10.16 17.29 12.69C17.32 15.71 19.94 16.72 19.97 16.73C19.94 16.8 19.55 18.17 18.59 19.5M13 3.5C13.73 2.67 14.94 2.04 15.94 2C16.07 3.17 15.6 4.35 14.9 5.19C14.21 6.04 13.07 6.7 11.95 6.61C11.8 5.46 12.36 4.26 13 3.5Z" fill="#D8E0F0"/>
</svg>
