<svg width="24" height="24" viewBox="0 0 24 24" fill="none" xmlns="http://www.w3.org/2000/svg">
<path d="M8.5 14.5C9.16304 14.5 9.79893 14.2366 10.2678 13.7678C10.7366 13.2989 11 12.663 11 12C11 10.62 10.5 10 10 9C8.928 6.857 9.776 4.946 12 3C12.5 5.5 14 7.9 16 9.5C18 11.1 19 13 19 15C19 16.8565 18.2625 18.637 16.9497 19.9497C15.637 21.2625 13.8565 22 12 22C10.1435 22 8.36301 21.2625 7.05025 19.9497C5.7375 18.637 5 16.8565 5 15C5 13.847 5.433 12.706 6 12C5.92492 12.3674 5.93346 12.7471 6.02501 13.1107C6.11655 13.4744 6.28874 13.8129 6.52883 14.101C6.76892 14.3891 7.07075 14.6195 7.41197 14.7751C7.75319 14.9307 8.12505 15.0076 8.5 15V14.5Z" stroke="#D8E0F0" stroke-width="1.8" stroke-linecap="round" stroke-linejoin="round"/>
</svg>
